<svg xmlns="http://www.w3.org/2000/svg" xmlns:xlink="http://www.w3.org/1999/xlink" version="1.1" width="653.8pt" height="424.8pt" viewBox="0 0 653.8 424.8">
<path transform="matrix(.45,0,0,.45,0,0)" d="M0 0H1453V944H0Z" fill-opacity="0"/>
<path transform="matrix(.45,0,0,.45,42.30005,216)" d="M0 6C0 0 6 0 6 0H386.7C392.6 0 392.6 6 392.6 6L392.7 130C392.6 136 386.6 136 386.6 136H6C0 136 0 130 0 130Z" fill="#ffffff"/>
<path transform="matrix(.45,0,0,.45,42.30005,216)" stroke-width="5" stroke-linecap="butt" stroke-miterlimit="4" stroke-linejoin="miter" fill="none" stroke="#3a414a" d="M0 6C0 0 6 0 6 0H386.7C392.6 0 392.6 6 392.6 6L392.7 130C392.6 136 386.6 136 386.6 136H6C0 136 0 130 0 130Z"/>
<path transform="matrix(.05553,0,0,.05553,84.141017,238.97249)" d="M30 0V-124-248H63V-137.5-27H188V-13.5 0H30Z" fill="#282c33"/>
<path transform="matrix(.05553,0,0,.05553,95.24702,238.97249)" d="M100-194C162-195 185-157 185-95 186-32 158 4 99 4 40 4 16-35 15-95 15-161 43-194 100-194ZM99-20C143-19 152-51 152-95 152-138 144-170 101-170 58-170 48-138 48-95 48-52 58-21 99-20Z" fill="#282c33"/>
<path transform="matrix(.05553,0,0,.05553,106.35301,238.97249)" d="M206 0H170L130-164 89 0H53L-1-190H31L70-26 113-190H147L188-26 230-190H261Z" fill="#282c33"/>
<path transform="matrix(.05553,0,0,.05553,120.73528,238.97249)" d="" fill="#282c33"/>
<path transform="matrix(.05553,0,0,.05553,126.27001,238.97249)" d="M30-248C117-247 221-263 221-173 221-95 144-93 63-97V-48.5 0H30V-124-248ZM63-123C120-123 187-112 187-173 187-232 119-220 63-221V-172-123Z" fill="#282c33"/>
<path transform="matrix(.05553,0,0,.05553,139.59722,238.97249)" d="M84 4C-5 8 30-112 23-190H55V-130-70C55-39 62-20 94-21 166-23 139-122 144-190H175L176 0H146C145-10 147-25 144-33 133-11 116 3 84 4Z" fill="#282c33"/>
<path transform="matrix(.05553,0,0,.05553,150.70322,238.97249)" d="M114-163C36-179 61-72 57 0H25L24-190H54C55-178 53-161 56-151 62-178 79-200 114-192V-177.5-163Z" fill="#282c33"/>
<path transform="matrix(.05553,0,0,.05553,157.31128,238.97249)" d="M24-231V-246-261H56V-246-231H24ZM24 0V-95-190H56V-95 0H24Z" fill="#282c33"/>
<path transform="matrix(.05553,0,0,.05553,161.69815,238.97249)" d="M59-47C57-23 77-18 97-25V-13-1C64 9 27 4 27-40V-103.5-167H5V-178.5-190H29L38-233H59V-211.5-190H94V-178.5-167H59V-107-47Z" fill="#282c33"/>
<path transform="matrix(.05553,0,0,.05553,167.25116,238.97249)" d="M179-190 93 31C79 59 56 82 12 73V61 49C51 55 65 29 76-1L1-190H35L92-34 146-190H179Z" fill="#282c33"/>
<path transform="matrix(.05553,0,0,.05553,177.24655,238.97249)" d="" fill="#282c33"/>
<path transform="matrix(.05553,0,0,.05553,92.97001,262.971)" d="M30-248C148-255 246-240 243-126 240-48 200 0 122 0H30V-124-248ZM63-27C152-19 209-43 209-126 209-209 149-227 63-221V-124-27Z" fill="#282c33"/>
<path transform="matrix(.05553,0,0,.05553,107.35228,262.971)" d="M100-194C163-194 186-152 184-88H49C49-48 63-21 102-20 128-19 145-32 151-49L179-41C168-13 142 4 102 4 44 4 14-33 15-96 16-157 41-194 100-194ZM152-113C158-173 76-190 55-141 52-134 49-124 49-113H152Z" fill="#282c33"/>
<path transform="matrix(.05553,0,0,.05553,118.45828,262.971)" d="M210-169C143-166 172-64 166 0H135V-60.5-121C135-150 130-171 100-169 34-165 62-65 56 0H25L24-190H54C55-180 53-166 56-158 66-202 155-208 163-158 174-179 190-193 221-194 306-196 268-75 276 0H245V-60.5-121C245-150 240-170 210-169Z" fill="#282c33"/>
<path transform="matrix(.05553,0,0,.05553,135.06175,262.971)" d="M141-36C126-15 110 5 73 4 37 3 15-17 15-53 14-117 78-116 140-116 143-151 131-170 99-170 75-169 58-163 57-139L24-142C29-179 57-194 100-194 145-194 172-174 172-130V-89-48C171-28 179-16 200-21V-11-1C169 8 139-3 141-36ZM48-53C48-33 60-20 80-20 121-23 143-49 140-94 97-92 48-99 48-53Z" fill="#282c33"/>
<path transform="matrix(.05553,0,0,.05553,146.16776,262.971)" d="M117-194C206-198 170-78 177 0H145V-60.5-121C145-152 137-170 106-169 34-167 62-67 57 0H25L24-190H54C55-180 53-166 56-158 67-180 85-193 117-194Z" fill="#282c33"/>
<path transform="matrix(.05553,0,0,.05553,157.27375,262.971)" d="M85-194C116-194 133-181 145-161L144-261H176L177 0H147C145-10 147-23 144-31 134-8 116 4 85 4 32 4 16-35 15-94 15-160 38-194 85-194ZM94-170C54-170 48-136 48-95 48-55 54-21 93-21 135-21 144-53 144-97 144-139 135-171 94-170Z" fill="#282c33"/>
<path transform="matrix(.45,0,0,.45,411.30006,86.399997)" d="M94.9 3.1C100 0 106 0 106 0H394C400 0 405.1 3.086 405.1 3.086L494.9 56.9C500 60 494.8 63.08 494.8 63.08L405.1 116.9C400 120 394 120 394 120H106C100 120 94.85 116.9 94.85 116.9L5.1 63.1C0 60 5.144 56.91 5.144 56.91Z" fill="#fc9432"/>
<path transform="matrix(.45,0,0,.45,411.30006,86.399997)" stroke-width="5" stroke-linecap="butt" stroke-miterlimit="4" stroke-linejoin="miter" fill="none" stroke="#3a414a" d="M94.9 3.1C100 0 106 0 106 0H394C400 0 405.1 3.086 405.1 3.086L494.9 56.9C500 60 494.8 63.08 494.8 63.08L405.1 116.9C400 120 394 120 394 120H106C100 120 94.85 116.9 94.85 116.9L5.1 63.1C0 60 5.144 56.91 5.144 56.91Z"/>
<path transform="matrix(.05553,0,0,.05553,498.78004,117.02249)" d="M194-70C194-24 160-6 113-4V10.5 25H91V10.5-4C42-5 12-27 4-67L34-73C39-45 59-32 91-30V-73.5-117C53-126 15-137 15-184 16-226 48-242 91-243V-254.5-266H113V-254.5-243C158-243 180-223 189-187L158-181C153-204 140-216 113-218V-179-140C154-130 194-120 194-70ZM113-29C164-22 184-95 132-106 126-108 120-110 113-112V-70.5-29ZM91-219C44-225 28-162 73-150 79-148 85-147 91-145V-182-219Z" fill="#282c33"/>
<path transform="matrix(.05553,0,0,.05553,509.88603,117.02249)" d="M155-56V-28 0H125V-28-56H8V-68.5-81L122-248H155V-164.5-81H190V-68.5-56H155ZM125-212C98-166 67-122 37-81H125V-146.5-212Z" fill="#282c33"/>
<path transform="matrix(.05553,0,0,.05553,520.992,117.02249)" d="M33 0V-19-38H67V-19 0H33Z" fill="#282c33"/>
<path transform="matrix(.05553,0,0,.05553,526.54507,117.02249)" d="M126-127C159-121 184-107 184-68 184 20 45 24 20-39 17-47 15-55 14-64L46-67C52-40 67-23 100-23 132-23 152-38 152-69 152-107 116-115 73-112V-126-140C112-139 145-144 145-182 145-209 128-225 99-225 71-225 52-210 50-184L18-187C24-229 53-250 99-251 147-252 178-230 178-186 178-150 157-134 126-127Z" fill="#282c33"/>
<path transform="matrix(.05553,0,0,.05553,537.651,117.02249)" d="M101-251C169-251 186-196 186-124 186-52 166 4 100 4 33 4 14-52 14-124 14-197 31-251 101-251ZM100-22C147-22 154-71 154-124 154-177 150-226 101-226 50-226 46-178 46-124 46-71 51-22 100-22Z" fill="#282c33"/>
<path transform="matrix(.45,0,0,.45,411.30006,219.59999)" d="M94.9 3.1C100 0 106 0 106 0H394C400 0 405.1 3.086 405.1 3.086L494.9 56.9C500 60 494.8 63.08 494.8 63.08L405.1 116.9C400 120 394 120 394 120H106C100 120 94.85 116.9 94.85 116.9L5.1 63.1C0 60 5.144 56.91 5.144 56.91Z" fill="#fc9432"/>
<path transform="matrix(.45,0,0,.45,411.30006,219.59999)" stroke-width="5" stroke-linecap="butt" stroke-miterlimit="4" stroke-linejoin="miter" fill="none" stroke="#3a414a" d="M94.9 3.1C100 0 106 0 106 0H394C400 0 405.1 3.086 405.1 3.086L494.9 56.9C500 60 494.8 63.08 494.8 63.08L405.1 116.9C400 120 394 120 394 120H106C100 120 94.85 116.9 94.85 116.9L5.1 63.1C0 60 5.144 56.91 5.144 56.91Z"/>
<path transform="matrix(.05553,0,0,.05553,498.78004,250.2225)" d="M194-70C194-24 160-6 113-4V10.5 25H91V10.5-4C42-5 12-27 4-67L34-73C39-45 59-32 91-30V-73.5-117C53-126 15-137 15-184 16-226 48-242 91-243V-254.5-266H113V-254.5-243C158-243 180-223 189-187L158-181C153-204 140-216 113-218V-179-140C154-130 194-120 194-70ZM113-29C164-22 184-95 132-106 126-108 120-110 113-112V-70.5-29ZM91-219C44-225 28-162 73-150 79-148 85-147 91-145V-182-219Z" fill="#282c33"/>
<path transform="matrix(.05553,0,0,.05553,509.88603,250.2225)" d="M155-56V-28 0H125V-28-56H8V-68.5-81L122-248H155V-164.5-81H190V-68.5-56H155ZM125-212C98-166 67-122 37-81H125V-146.5-212Z" fill="#282c33"/>
<path transform="matrix(.05553,0,0,.05553,520.992,250.2225)" d="M33 0V-19-38H67V-19 0H33Z" fill="#282c33"/>
<path transform="matrix(.05553,0,0,.05553,526.54507,250.2225)" d="M27 0V-13.5-27H91V-122-217L35-178V-192.5-207L93-248H122V-137.5-27H183V-13.5 0H27Z" fill="#282c33"/>
<path transform="matrix(.05553,0,0,.05553,537.651,250.2225)" d="M101-251C169-251 186-196 186-124 186-52 166 4 100 4 33 4 14-52 14-124 14-197 31-251 101-251ZM100-22C147-22 154-71 154-124 154-177 150-226 101-226 50-226 46-178 46-124 46-71 51-22 100-22Z" fill="#282c33"/>
<path transform="matrix(.45,0,0,.45,411.30006,153)" d="M94.9 3.1C100 0 106 0 106 0H394C400 0 405.1 3.086 405.1 3.086L494.9 56.9C500 60 494.8 63.08 494.8 63.08L405.1 116.9C400 120 394 120 394 120H106C100 120 94.85 116.9 94.85 116.9L5.1 63.1C0 60 5.144 56.91 5.144 56.91Z" fill="#fc9432"/>
<path transform="matrix(.45,0,0,.45,411.30006,153)" stroke-width="5" stroke-linecap="butt" stroke-miterlimit="4" stroke-linejoin="miter" fill="none" stroke="#3a414a" d="M94.9 3.1C100 0 106 0 106 0H394C400 0 405.1 3.086 405.1 3.086L494.9 56.9C500 60 494.8 63.08 494.8 63.08L405.1 116.9C400 120 394 120 394 120H106C100 120 94.85 116.9 94.85 116.9L5.1 63.1C0 60 5.144 56.91 5.144 56.91Z"/>
<path transform="matrix(.05553,0,0,.05553,498.78004,183.6225)" d="M194-70C194-24 160-6 113-4V10.5 25H91V10.5-4C42-5 12-27 4-67L34-73C39-45 59-32 91-30V-73.5-117C53-126 15-137 15-184 16-226 48-242 91-243V-254.5-266H113V-254.5-243C158-243 180-223 189-187L158-181C153-204 140-216 113-218V-179-140C154-130 194-120 194-70ZM113-29C164-22 184-95 132-106 126-108 120-110 113-112V-70.5-29ZM91-219C44-225 28-162 73-150 79-148 85-147 91-145V-182-219Z" fill="#282c33"/>
<path transform="matrix(.05553,0,0,.05553,509.88603,183.6225)" d="M155-56V-28 0H125V-28-56H8V-68.5-81L122-248H155V-164.5-81H190V-68.5-56H155ZM125-212C98-166 67-122 37-81H125V-146.5-212Z" fill="#282c33"/>
<path transform="matrix(.05553,0,0,.05553,520.992,183.6225)" d="M33 0V-19-38H67V-19 0H33Z" fill="#282c33"/>
<path transform="matrix(.05553,0,0,.05553,526.54507,183.6225)" d="M101-251C183-258 194-164 144-119L82-64C71-53 59-42 53-27H182V-13.5 0H18C20-99 146-94 146-182 146-210 130-225 101-225 72-225 55-210 52-184L20-187C26-228 54-247 101-251Z" fill="#282c33"/>
<path transform="matrix(.05553,0,0,.05553,537.651,183.6225)" d="M101-251C169-251 186-196 186-124 186-52 166 4 100 4 33 4 14-52 14-124 14-197 31-251 101-251ZM100-22C147-22 154-71 154-124 154-177 150-226 101-226 50-226 46-178 46-124 46-71 51-22 100-22Z" fill="#282c33"/>
<path transform="matrix(.45,0,0,.45,411.30006,286.19999)" d="M94.9 3.1C100 0 106 0 106 0H394C400 0 405.1 3.086 405.1 3.086L494.9 56.9C500 60 494.8 63.08 494.8 63.08L405.1 116.9C400 120 394 120 394 120H106C100 120 94.85 116.9 94.85 116.9L5.1 63.1C0 60 5.144 56.91 5.144 56.91Z" fill="#fc9432"/>
<path transform="matrix(.45,0,0,.45,411.30006,286.19999)" stroke-width="5" stroke-linecap="butt" stroke-miterlimit="4" stroke-linejoin="miter" fill="none" stroke="#3a414a" d="M94.9 3.1C100 0 106 0 106 0H394C400 0 405.1 3.086 405.1 3.086L494.9 56.9C500 60 494.8 63.08 494.8 63.08L405.1 116.9C400 120 394 120 394 120H106C100 120 94.85 116.9 94.85 116.9L5.1 63.1C0 60 5.144 56.91 5.144 56.91Z"/>
<path transform="matrix(.05553,0,0,.05553,498.78004,316.82249)" d="M194-70C194-24 160-6 113-4V10.5 25H91V10.5-4C42-5 12-27 4-67L34-73C39-45 59-32 91-30V-73.5-117C53-126 15-137 15-184 16-226 48-242 91-243V-254.5-266H113V-254.5-243C158-243 180-223 189-187L158-181C153-204 140-216 113-218V-179-140C154-130 194-120 194-70ZM113-29C164-22 184-95 132-106 126-108 120-110 113-112V-70.5-29ZM91-219C44-225 28-162 73-150 79-148 85-147 91-145V-182-219Z" fill="#282c33"/>
<path transform="matrix(.05553,0,0,.05553,509.88603,316.82249)" d="M155-56V-28 0H125V-28-56H8V-68.5-81L122-248H155V-164.5-81H190V-68.5-56H155ZM125-212C98-166 67-122 37-81H125V-146.5-212Z" fill="#282c33"/>
<path transform="matrix(.05553,0,0,.05553,520.992,316.82249)" d="M33 0V-19-38H67V-19 0H33Z" fill="#282c33"/>
<path transform="matrix(.05553,0,0,.05553,526.54507,316.82249)" d="M101-251C169-251 186-196 186-124 186-52 166 4 100 4 33 4 14-52 14-124 14-197 31-251 101-251ZM100-22C147-22 154-71 154-124 154-177 150-226 101-226 50-226 46-178 46-124 46-71 51-22 100-22Z" fill="#282c33"/>
<path transform="matrix(.05553,0,0,.05553,537.651,316.82249)" d="M101-251C169-251 186-196 186-124 186-52 166 4 100 4 33 4 14-52 14-124 14-197 31-251 101-251ZM100-22C147-22 154-71 154-124 154-177 150-226 101-226 50-226 46-178 46-124 46-71 51-22 100-22Z" fill="#282c33"/>
<path transform="matrix(.45,0,0,.45,411.30006,352.8)" d="M94.9 3.1C100 0 106 0 106 0H394C400 0 405.1 3.086 405.1 3.086L494.9 56.9C500 60 494.8 63.08 494.8 63.08L405.1 116.9C400 120 394 120 394 120H106C100 120 94.85 116.9 94.85 116.9L5.1 63.1C0 60 5.144 56.91 5.144 56.91Z" fill="#fc9432"/>
<path transform="matrix(.45,0,0,.45,411.30006,352.8)" stroke-width="5" stroke-linecap="butt" stroke-miterlimit="4" stroke-linejoin="miter" fill="none" stroke="#3a414a" d="M94.9 3.1C100 0 106 0 106 0H394C400 0 405.1 3.086 405.1 3.086L494.9 56.9C500 60 494.8 63.08 494.8 63.08L405.1 116.9C400 120 394 120 394 120H106C100 120 94.85 116.9 94.85 116.9L5.1 63.1C0 60 5.144 56.91 5.144 56.91Z"/>
<path transform="matrix(.05553,0,0,.05553,498.78004,383.4225)" d="M194-70C194-24 160-6 113-4V10.5 25H91V10.5-4C42-5 12-27 4-67L34-73C39-45 59-32 91-30V-73.5-117C53-126 15-137 15-184 16-226 48-242 91-243V-254.5-266H113V-254.5-243C158-243 180-223 189-187L158-181C153-204 140-216 113-218V-179-140C154-130 194-120 194-70ZM113-29C164-22 184-95 132-106 126-108 120-110 113-112V-70.5-29ZM91-219C44-225 28-162 73-150 79-148 85-147 91-145V-182-219Z" fill="#282c33"/>
<path transform="matrix(.05553,0,0,.05553,509.88603,383.4225)" d="M126-127C159-121 184-107 184-68 184 20 45 24 20-39 17-47 15-55 14-64L46-67C52-40 67-23 100-23 132-23 152-38 152-69 152-107 116-115 73-112V-126-140C112-139 145-144 145-182 145-209 128-225 99-225 71-225 52-210 50-184L18-187C24-229 53-250 99-251 147-252 178-230 178-186 178-150 157-134 126-127Z" fill="#282c33"/>
<path transform="matrix(.05553,0,0,.05553,520.992,383.4225)" d="M33 0V-19-38H67V-19 0H33Z" fill="#282c33"/>
<path transform="matrix(.05553,0,0,.05553,526.54507,383.4225)" d="M99-251C163-251 183-201 183-129 183-37 130 33 47-8 33-15 27-31 22-48L52-53C58-14 121-14 136-46 145-65 152-90 152-120 142-98 121-85 90-85 41-85 17-118 17-168 17-222 45-251 99-251ZM98-110C129-111 149-128 149-159 149-195 135-226 98-226 64-226 49-203 49-168 49-134 64-110 98-110Z" fill="#282c33"/>
<path transform="matrix(.05553,0,0,.05553,537.651,383.4225)" d="M101-251C169-251 186-196 186-124 186-52 166 4 100 4 33 4 14-52 14-124 14-197 31-251 101-251ZM100-22C147-22 154-71 154-124 154-177 150-226 101-226 50-226 46-178 46-124 46-71 51-22 100-22Z" fill="#282c33"/>
<path transform="matrix(.45,0,0,.45,-785.69998,-36)" stroke-width="6" stroke-linecap="butt" stroke-miterlimit="4" stroke-linejoin="miter" fill="none" stroke="#3a414a" d="M2238 628H2354C2360 628 2360 622 2360 622V338C2360 332 2366 332 2366 332H2633"/>
<path transform="matrix(.45,0,0,.45,-785.69998,-36)" d="M2238 631H2235V625H2238Z" fill="#3a414a"/>
<path transform="matrix(.45,0,0,.45,-785.69998,-36)" stroke-width=".05" stroke-linecap="butt" stroke-miterlimit="4" stroke-linejoin="miter" fill="none" stroke="#3a414a" d="M2238 631H2235V625H2238Z"/>
<path transform="matrix(.45,0,0,.45,-785.69998,-36)" d="M2651 332 2636 336.6V327.4Z" fill="#3a414a"/>
<path transform="matrix(.45,0,0,.45,-785.69998,-36)" stroke-width="6" stroke-linecap="butt" stroke-miterlimit="4" stroke-linejoin="miter" fill="none" stroke="#3a414a" d="M2651 332 2636 336.6V327.4Z"/>
<path transform="matrix(.45,0,0,.45,-785.69998,-36)" stroke-width="6" stroke-linecap="butt" stroke-miterlimit="4" stroke-linejoin="miter" fill="none" stroke="#3a414a" d="M2238 628H2354C2360 628 2360 622 2360 622V486C2360 480 2366 480 2366 480H2633"/>
<path transform="matrix(.45,0,0,.45,-785.69998,-36)" d="M2238 631H2235V625H2238Z" fill="#3a414a"/>
<path transform="matrix(.45,0,0,.45,-785.69998,-36)" stroke-width=".05" stroke-linecap="butt" stroke-miterlimit="4" stroke-linejoin="miter" fill="none" stroke="#3a414a" d="M2238 631H2235V625H2238Z"/>
<path transform="matrix(.45,0,0,.45,-785.69998,-36)" d="M2651 480 2636 484.6V475.4Z" fill="#3a414a"/>
<path transform="matrix(.45,0,0,.45,-785.69998,-36)" stroke-width="6" stroke-linecap="butt" stroke-miterlimit="4" stroke-linejoin="miter" fill="none" stroke="#3a414a" d="M2651 480 2636 484.6V475.4Z"/>
<path transform="matrix(.45,0,0,.45,-785.69998,-36)" stroke-width="6" stroke-linecap="butt" stroke-miterlimit="4" stroke-linejoin="miter" fill="none" stroke="#3a414a" d="M2238 628H2633"/>
<path transform="matrix(.45,0,0,.45,-785.69998,-36)" d="M2238 631H2235V625H2238Z" fill="#3a414a"/>
<path transform="matrix(.45,0,0,.45,-785.69998,-36)" stroke-width=".05" stroke-linecap="butt" stroke-miterlimit="4" stroke-linejoin="miter" fill="none" stroke="#3a414a" d="M2238 631H2235V625H2238Z"/>
<path transform="matrix(.45,0,0,.45,-785.69998,-36)" d="M2651 628 2636 632.6V623.4Z" fill="#3a414a"/>
<path transform="matrix(.45,0,0,.45,-785.69998,-36)" stroke-width="6" stroke-linecap="butt" stroke-miterlimit="4" stroke-linejoin="miter" fill="none" stroke="#3a414a" d="M2651 628 2636 632.6V623.4Z"/>
<path transform="matrix(.45,0,0,.45,-785.69998,-36)" stroke-width="6" stroke-linecap="butt" stroke-miterlimit="4" stroke-linejoin="miter" fill="none" stroke="#3a414a" d="M2238 628H2354C2360 628 2360 634 2360 634V770C2360 776 2366 776 2366 776H2633"/>
<path transform="matrix(.45,0,0,.45,-785.69998,-36)" d="M2238 631H2235V625H2238Z" fill="#3a414a"/>
<path transform="matrix(.45,0,0,.45,-785.69998,-36)" stroke-width=".05" stroke-linecap="butt" stroke-miterlimit="4" stroke-linejoin="miter" fill="none" stroke="#3a414a" d="M2238 631H2235V625H2238Z"/>
<path transform="matrix(.45,0,0,.45,-785.69998,-36)" d="M2651 776 2636 780.6V771.4Z" fill="#3a414a"/>
<path transform="matrix(.45,0,0,.45,-785.69998,-36)" stroke-width="6" stroke-linecap="butt" stroke-miterlimit="4" stroke-linejoin="miter" fill="none" stroke="#3a414a" d="M2651 776 2636 780.6V771.4Z"/>
<path transform="matrix(.45,0,0,.45,-785.69998,-36)" stroke-width="6" stroke-linecap="butt" stroke-miterlimit="4" stroke-linejoin="miter" fill="none" stroke="#3a414a" d="M2238 628H2244M2270 628H2283M2308 628H2321M2347 628H2354L2355 628.2 2356 628.6 2357 629.1 2358 629.7V630.4L2359 631.2V632.1 633 638.9M2359 662.7V674.6M2359 698.3V710.2M2359 733.9V745.8M2359 769.5V781.4M2359 805.2V817M2359 840.8V852.7M2359 876.4V888.3M2359 912 2360 918V918.9 919.8 920.7L2361 921.5V922.2L2362 922.8 2363 923.3 2364 923.7 2365 923.9H2371M2397 923.9H2409M2435 923.9H2448M2473 923.9H2486M2512 923.9H2525M2550 923.9H2563M2589 923.9H2601M2627 923.9 2633 924"/>
<path transform="matrix(.45,0,0,.45,-785.69998,-36)" d="M2238 631H2235V625H2238Z" fill="#3a414a"/>
<path transform="matrix(.45,0,0,.45,-785.69998,-36)" stroke-width=".05" stroke-linecap="butt" stroke-miterlimit="4" stroke-linejoin="miter" fill="none" stroke="#3a414a" d="M2238 631H2235V625H2238Z"/>
<path transform="matrix(.45,0,0,.45,-785.69998,-36)" d="M2651 924 2636 928.6V919.4Z" fill="#3a414a"/>
<path transform="matrix(.45,0,0,.45,-785.69998,-36)" stroke-width="6" stroke-linecap="butt" stroke-miterlimit="4" stroke-linejoin="miter" fill="none" stroke="#3a414a" d="M2651 924 2636 928.6V919.4Z"/>
<path transform="matrix(.45,0,0,.45,285.30006,77.22)" d="M0 6C0 0 6 0 6 0H234C240 0 240 6 240 6V110.7C240 116.6 234 116.6 234 116.6L6 116.7C0 116.6 0 110.6 0 110.6Z" fill="#ffffff" fill-opacity="0"/>
<path transform="matrix(.45,0,0,.45,285.30006,77.22)" stroke-width="1" stroke-linecap="butt" stroke-miterlimit="4" stroke-linejoin="miter" fill="none" stroke="#000000" stroke-opacity="0" d="M0 6C0 0 6 0 6 0H234C240 0 240 6 240 6V110.7C240 116.6 234 116.6 234 116.6L6 116.7C0 116.6 0 110.6 0 110.6Z"/>
<path transform="matrix(.05553,0,0,.05553,290.4386,107.505008)" d="M101-251C169-251 186-196 186-124 186-52 166 4 100 4 33 4 14-52 14-124 14-197 31-251 101-251ZM100-22C147-22 154-71 154-124 154-177 150-226 101-226 50-226 46-178 46-124 46-71 51-22 100-22Z" fill="#008a0e"/>
<path transform="matrix(.05553,0,0,.05553,301.5446,107.505008)" d="M33 0V-19-38H67V-19 0H33Z" fill="#008a0e"/>
<path transform="matrix(.05553,0,0,.05553,307.0976,107.505008)" d="M101-251C169-251 186-196 186-124 186-52 166 4 100 4 33 4 14-52 14-124 14-197 31-251 101-251ZM100-22C147-22 154-71 154-124 154-177 150-226 101-226 50-226 46-178 46-124 46-71 51-22 100-22Z" fill="#008a0e"/>
<path transform="matrix(.05553,0,0,.05553,318.2036,107.505008)" d="M101-251C169-251 186-196 186-124 186-52 166 4 100 4 33 4 14-52 14-124 14-197 31-251 101-251ZM100-22C147-22 154-71 154-124 154-177 150-226 101-226 50-226 46-178 46-124 46-71 51-22 100-22Z" fill="#008a0e"/>
<path transform="matrix(.05553,0,0,.05553,329.3096,107.505008)" d="M27 0V-13.5-27H91V-122-217L35-178V-192.5-207L93-248H122V-137.5-27H183V-13.5 0H27Z" fill="#008a0e"/>
<path transform="matrix(.05553,0,0,.05553,340.4156,107.505008)" d="" fill="#008a0e"/>
<path transform="matrix(.05553,0,0,.05553,345.96006,107.505008)" d="M127-220V-110 0H93V-110-220H8V-234-248H212V-234-220H127Z" fill="#008a0e"/>
<path transform="matrix(.05553,0,0,.05553,355.89994,107.505008)" d="M100-194C162-195 185-157 185-95 186-32 158 4 99 4 40 4 16-35 15-95 15-161 43-194 100-194ZM99-20C143-19 152-51 152-95 152-138 144-170 101-170 58-170 48-138 48-95 48-52 58-21 99-20Z" fill="#008a0e"/>
<path transform="matrix(.05553,0,0,.05553,367.00593,107.505008)" d="M117-194C206-198 170-78 177 0H145V-60.5-121C145-152 137-170 106-169 34-167 62-67 57 0H25L24-190H54C55-180 53-166 56-158 67-180 85-193 117-194Z" fill="#008a0e"/>
<path transform="matrix(.05553,0,0,.05553,378.11195,107.505008)" d="M135-143C132-177 49-181 48-143 63-90 163-131 167-53 171 25 17 21 10-45L38-50C42-14 135-5 136-50 126-106 23-65 18-140 14-197 100-203 140-182 152-175 161-163 164-147Z" fill="#008a0e"/>
<path transform="matrix(.45,0,0,.45,285.30006,144)" d="M0 6C0 0 6 0 6 0H234C240 0 240 6 240 6V110.7C240 116.6 234 116.6 234 116.6L6 116.7C0 116.6 0 110.6 0 110.6Z" fill="#ffffff" fill-opacity="0"/>
<path transform="matrix(.45,0,0,.45,285.30006,144)" stroke-width="1" stroke-linecap="butt" stroke-miterlimit="4" stroke-linejoin="miter" fill="none" stroke="#000000" stroke-opacity="0" d="M0 6C0 0 6 0 6 0H234C240 0 240 6 240 6V110.7C240 116.6 234 116.6 234 116.6L6 116.7C0 116.6 0 110.6 0 110.6Z"/>
<path transform="matrix(.05553,0,0,.05553,290.4386,174.285)" d="M101-251C169-251 186-196 186-124 186-52 166 4 100 4 33 4 14-52 14-124 14-197 31-251 101-251ZM100-22C147-22 154-71 154-124 154-177 150-226 101-226 50-226 46-178 46-124 46-71 51-22 100-22Z" fill="#008a0e"/>
<path transform="matrix(.05553,0,0,.05553,301.5446,174.285)" d="M33 0V-19-38H67V-19 0H33Z" fill="#008a0e"/>
<path transform="matrix(.05553,0,0,.05553,307.0976,174.285)" d="M101-251C169-251 186-196 186-124 186-52 166 4 100 4 33 4 14-52 14-124 14-197 31-251 101-251ZM100-22C147-22 154-71 154-124 154-177 150-226 101-226 50-226 46-178 46-124 46-71 51-22 100-22Z" fill="#008a0e"/>
<path transform="matrix(.05553,0,0,.05553,318.2036,174.285)" d="M101-251C169-251 186-196 186-124 186-52 166 4 100 4 33 4 14-52 14-124 14-197 31-251 101-251ZM100-22C147-22 154-71 154-124 154-177 150-226 101-226 50-226 46-178 46-124 46-71 51-22 100-22Z" fill="#008a0e"/>
<path transform="matrix(.05553,0,0,.05553,329.3096,174.285)" d="M27 0V-13.5-27H91V-122-217L35-178V-192.5-207L93-248H122V-137.5-27H183V-13.5 0H27Z" fill="#008a0e"/>
<path transform="matrix(.05553,0,0,.05553,340.4156,174.285)" d="" fill="#008a0e"/>
<path transform="matrix(.05553,0,0,.05553,345.96006,174.285)" d="M127-220V-110 0H93V-110-220H8V-234-248H212V-234-220H127Z" fill="#008a0e"/>
<path transform="matrix(.05553,0,0,.05553,355.89994,174.285)" d="M100-194C162-195 185-157 185-95 186-32 158 4 99 4 40 4 16-35 15-95 15-161 43-194 100-194ZM99-20C143-19 152-51 152-95 152-138 144-170 101-170 58-170 48-138 48-95 48-52 58-21 99-20Z" fill="#008a0e"/>
<path transform="matrix(.05553,0,0,.05553,367.00593,174.285)" d="M117-194C206-198 170-78 177 0H145V-60.5-121C145-152 137-170 106-169 34-167 62-67 57 0H25L24-190H54C55-180 53-166 56-158 67-180 85-193 117-194Z" fill="#008a0e"/>
<path transform="matrix(.05553,0,0,.05553,378.11195,174.285)" d="M135-143C132-177 49-181 48-143 63-90 163-131 167-53 171 25 17 21 10-45L38-50C42-14 135-5 136-50 126-106 23-65 18-140 14-197 100-203 140-182 152-175 161-163 164-147Z" fill="#008a0e"/>
<path transform="matrix(.45,0,0,.45,288.45008,210.73499)" d="M0 6C0 0 6 0 6 0H234C240 0 240 6 240 6V110.7C240 116.6 234 116.6 234 116.6L6 116.7C0 116.6 0 110.6 0 110.6Z" fill="#ffffff" fill-opacity="0"/>
<path transform="matrix(.45,0,0,.45,288.45008,210.73499)" stroke-width="1" stroke-linecap="butt" stroke-miterlimit="4" stroke-linejoin="miter" fill="none" stroke="#000000" stroke-opacity="0" d="M0 6C0 0 6 0 6 0H234C240 0 240 6 240 6V110.7C240 116.6 234 116.6 234 116.6L6 116.7C0 116.6 0 110.6 0 110.6Z"/>
<path transform="matrix(.05553,0,0,.05553,293.58863,241.01999)" d="M101-251C169-251 186-196 186-124 186-52 166 4 100 4 33 4 14-52 14-124 14-197 31-251 101-251ZM100-22C147-22 154-71 154-124 154-177 150-226 101-226 50-226 46-178 46-124 46-71 51-22 100-22Z" fill="#008a0e"/>
<path transform="matrix(.05553,0,0,.05553,304.6946,241.01999)" d="M33 0V-19-38H67V-19 0H33Z" fill="#008a0e"/>
<path transform="matrix(.05553,0,0,.05553,310.24763,241.01999)" d="M101-251C169-251 186-196 186-124 186-52 166 4 100 4 33 4 14-52 14-124 14-197 31-251 101-251ZM100-22C147-22 154-71 154-124 154-177 150-226 101-226 50-226 46-178 46-124 46-71 51-22 100-22Z" fill="#008a0e"/>
<path transform="matrix(.05553,0,0,.05553,321.35365,241.01999)" d="M101-251C169-251 186-196 186-124 186-52 166 4 100 4 33 4 14-52 14-124 14-197 31-251 101-251ZM100-22C147-22 154-71 154-124 154-177 150-226 101-226 50-226 46-178 46-124 46-71 51-22 100-22Z" fill="#008a0e"/>
<path transform="matrix(.05553,0,0,.05553,332.45964,241.01999)" d="M27 0V-13.5-27H91V-122-217L35-178V-192.5-207L93-248H122V-137.5-27H183V-13.5 0H27Z" fill="#008a0e"/>
<path transform="matrix(.05553,0,0,.05553,343.5656,241.01999)" d="" fill="#008a0e"/>
<path transform="matrix(.05553,0,0,.05553,349.11009,241.01999)" d="M127-220V-110 0H93V-110-220H8V-234-248H212V-234-220H127Z" fill="#008a0e"/>
<path transform="matrix(.05553,0,0,.05553,359.04997,241.01999)" d="M100-194C162-195 185-157 185-95 186-32 158 4 99 4 40 4 16-35 15-95 15-161 43-194 100-194ZM99-20C143-19 152-51 152-95 152-138 144-170 101-170 58-170 48-138 48-95 48-52 58-21 99-20Z" fill="#008a0e"/>
<path transform="matrix(.05553,0,0,.05553,370.15596,241.01999)" d="M117-194C206-198 170-78 177 0H145V-60.5-121C145-152 137-170 106-169 34-167 62-67 57 0H25L24-190H54C55-180 53-166 56-158 67-180 85-193 117-194Z" fill="#008a0e"/>
<path transform="matrix(.05553,0,0,.05553,381.26197,241.01999)" d="M135-143C132-177 49-181 48-143 63-90 163-131 167-53 171 25 17 21 10-45L38-50C42-14 135-5 136-50 126-106 23-65 18-140 14-197 100-203 140-182 152-175 161-163 164-147Z" fill="#008a0e"/>
<path transform="matrix(.45,0,0,.45,285.30006,277.46998)" d="M0 6C0 0 6 0 6 0H234C240 0 240 6 240 6V110.7C240 116.6 234 116.6 234 116.6L6 116.7C0 116.6 0 110.6 0 110.6Z" fill="#ffffff" fill-opacity="0"/>
<path transform="matrix(.45,0,0,.45,285.30006,277.46998)" stroke-width="1" stroke-linecap="butt" stroke-miterlimit="4" stroke-linejoin="miter" fill="none" stroke="#000000" stroke-opacity="0" d="M0 6C0 0 6 0 6 0H234C240 0 240 6 240 6V110.7C240 116.6 234 116.6 234 116.6L6 116.7C0 116.6 0 110.6 0 110.6Z"/>
<path transform="matrix(.05553,0,0,.05553,290.4386,307.75498)" d="M101-251C169-251 186-196 186-124 186-52 166 4 100 4 33 4 14-52 14-124 14-197 31-251 101-251ZM100-22C147-22 154-71 154-124 154-177 150-226 101-226 50-226 46-178 46-124 46-71 51-22 100-22Z" fill="#008a0e"/>
<path transform="matrix(.05553,0,0,.05553,301.5446,307.75498)" d="M33 0V-19-38H67V-19 0H33Z" fill="#008a0e"/>
<path transform="matrix(.05553,0,0,.05553,307.0976,307.75498)" d="M101-251C169-251 186-196 186-124 186-52 166 4 100 4 33 4 14-52 14-124 14-197 31-251 101-251ZM100-22C147-22 154-71 154-124 154-177 150-226 101-226 50-226 46-178 46-124 46-71 51-22 100-22Z" fill="#008a0e"/>
<path transform="matrix(.05553,0,0,.05553,318.2036,307.75498)" d="M101-251C169-251 186-196 186-124 186-52 166 4 100 4 33 4 14-52 14-124 14-197 31-251 101-251ZM100-22C147-22 154-71 154-124 154-177 150-226 101-226 50-226 46-178 46-124 46-71 51-22 100-22Z" fill="#008a0e"/>
<path transform="matrix(.05553,0,0,.05553,329.3096,307.75498)" d="M27 0V-13.5-27H91V-122-217L35-178V-192.5-207L93-248H122V-137.5-27H183V-13.5 0H27Z" fill="#008a0e"/>
<path transform="matrix(.05553,0,0,.05553,340.4156,307.75498)" d="" fill="#008a0e"/>
<path transform="matrix(.05553,0,0,.05553,345.96006,307.75498)" d="M127-220V-110 0H93V-110-220H8V-234-248H212V-234-220H127Z" fill="#008a0e"/>
<path transform="matrix(.05553,0,0,.05553,355.89994,307.75498)" d="M100-194C162-195 185-157 185-95 186-32 158 4 99 4 40 4 16-35 15-95 15-161 43-194 100-194ZM99-20C143-19 152-51 152-95 152-138 144-170 101-170 58-170 48-138 48-95 48-52 58-21 99-20Z" fill="#008a0e"/>
<path transform="matrix(.05553,0,0,.05553,367.00593,307.75498)" d="M117-194C206-198 170-78 177 0H145V-60.5-121C145-152 137-170 106-169 34-167 62-67 57 0H25L24-190H54C55-180 53-166 56-158 67-180 85-193 117-194Z" fill="#008a0e"/>
<path transform="matrix(.05553,0,0,.05553,378.11195,307.75498)" d="M135-143C132-177 49-181 48-143 63-90 163-131 167-53 171 25 17 21 10-45L38-50C42-14 135-5 136-50 126-106 23-65 18-140 14-197 100-203 140-182 152-175 161-163 164-147Z" fill="#008a0e"/>
<path transform="matrix(.45,0,0,.45,303.30006,344.25)" d="M0 6C0 0 6 0 6 0H234C240 0 240 6 240 6V110.7C240 116.6 234 116.6 234 116.6L6 116.7C0 116.6 0 110.6 0 110.6Z" fill="#ffffff" fill-opacity="0"/>
<path transform="matrix(.45,0,0,.45,303.30006,344.25)" stroke-width="1" stroke-linecap="butt" stroke-miterlimit="4" stroke-linejoin="miter" fill="none" stroke="#000000" stroke-opacity="0" d="M0 6C0 0 6 0 6 0H234C240 0 240 6 240 6V110.7C240 116.6 234 116.6 234 116.6L6 116.7C0 116.6 0 110.6 0 110.6Z"/>
<path transform="matrix(.05553,0,0,.05553,327.87907,374.535)" d="M101-251C169-251 186-196 186-124 186-52 166 4 100 4 33 4 14-52 14-124 14-197 31-251 101-251ZM100-22C147-22 154-71 154-124 154-177 150-226 101-226 50-226 46-178 46-124 46-71 51-22 100-22Z" fill="#e81313"/>
<path transform="matrix(.05553,0,0,.05553,338.98506,374.535)" d="" fill="#e81313"/>
<path transform="matrix(.05553,0,0,.05553,344.54707,374.535)" d="M127-220V-110 0H93V-110-220H8V-234-248H212V-234-220H127Z" fill="#e81313"/>
<path transform="matrix(.05553,0,0,.05553,354.48695,374.535)" d="M100-194C162-195 185-157 185-95 186-32 158 4 99 4 40 4 16-35 15-95 15-161 43-194 100-194ZM99-20C143-19 152-51 152-95 152-138 144-170 101-170 58-170 48-138 48-95 48-52 58-21 99-20Z" fill="#e81313"/>
<path transform="matrix(.05553,0,0,.05553,365.59294,374.535)" d="M117-194C206-198 170-78 177 0H145V-60.5-121C145-152 137-170 106-169 34-167 62-67 57 0H25L24-190H54C55-180 53-166 56-158 67-180 85-193 117-194Z" fill="#e81313"/>
<path transform="matrix(.05553,0,0,.05553,376.6989,374.535)" d="M135-143C132-177 49-181 48-143 63-90 163-131 167-53 171 25 17 21 10-45L38-50C42-14 135-5 136-50 126-106 23-65 18-140 14-197 100-203 140-182 152-175 161-163 164-147Z" fill="#e81313"/>
<path transform="matrix(.45,0,0,.45,42.30005,63)" d="M0 6C0 0 6 0 6 0H386.7C392.6 0 392.6 6 392.6 6L392.7 130C392.6 136 386.6 136 386.6 136H6C0 136 0 130 0 130Z" fill="#6db1ff"/>
<path transform="matrix(.45,0,0,.45,42.30005,63)" stroke-width="5" stroke-linecap="butt" stroke-miterlimit="4" stroke-linejoin="miter" fill="none" stroke="#3a414a" d="M0 6C0 0 6 0 6 0H386.7C392.6 0 392.6 6 392.6 6L392.7 130C392.6 136 386.6 136 386.6 136H6C0 136 0 130 0 130Z"/>
<path transform="matrix(.05553,0,0,.05553,84.141017,85.97249)" d="M30 0V-124-248H63V-137.5-27H188V-13.5 0H30Z" fill="#282c33"/>
<path transform="matrix(.05553,0,0,.05553,95.24702,85.97249)" d="M100-194C162-195 185-157 185-95 186-32 158 4 99 4 40 4 16-35 15-95 15-161 43-194 100-194ZM99-20C143-19 152-51 152-95 152-138 144-170 101-170 58-170 48-138 48-95 48-52 58-21 99-20Z" fill="#282c33"/>
<path transform="matrix(.05553,0,0,.05553,106.35301,85.97249)" d="M206 0H170L130-164 89 0H53L-1-190H31L70-26 113-190H147L188-26 230-190H261Z" fill="#282c33"/>
<path transform="matrix(.05553,0,0,.05553,120.73528,85.97249)" d="" fill="#282c33"/>
<path transform="matrix(.05553,0,0,.05553,126.27001,85.97249)" d="M30-248C117-247 221-263 221-173 221-95 144-93 63-97V-48.5 0H30V-124-248ZM63-123C120-123 187-112 187-173 187-232 119-220 63-221V-172-123Z" fill="#282c33"/>
<path transform="matrix(.05553,0,0,.05553,139.59722,85.97249)" d="M84 4C-5 8 30-112 23-190H55V-130-70C55-39 62-20 94-21 166-23 139-122 144-190H175L176 0H146C145-10 147-25 144-33 133-11 116 3 84 4Z" fill="#282c33"/>
<path transform="matrix(.05553,0,0,.05553,150.70322,85.97249)" d="M24-231V-246-261H56V-246-231H24ZM24 0V-95-190H56V-95 0H24Z" fill="#282c33"/>
<path transform="matrix(.05553,0,0,.05553,155.09009,85.97249)" d="M114-163C36-179 61-72 57 0H25L24-190H54C55-178 53-161 56-151 62-178 79-200 114-192V-177.5-163Z" fill="#282c33"/>
<path transform="matrix(.05553,0,0,.05553,161.69815,85.97249)" d="M59-47C57-23 77-18 97-25V-13-1C64 9 27 4 27-40V-103.5-167H5V-178.5-190H29L38-233H59V-211.5-190H94V-178.5-167H59V-107-47Z" fill="#282c33"/>
<path transform="matrix(.05553,0,0,.05553,167.25116,85.97249)" d="M179-190 93 31C79 59 56 82 12 73V61 49C51 55 65 29 76-1L1-190H35L92-34 146-190H179Z" fill="#282c33"/>
<path transform="matrix(.05553,0,0,.05553,177.24655,85.97249)" d="" fill="#282c33"/>
<path transform="matrix(.05553,0,0,.05553,49.75246,109.97099)" d="M30-248C148-255 246-240 243-126 240-48 200 0 122 0H30V-124-248ZM63-27C152-19 209-43 209-126 209-209 149-227 63-221V-124-27Z" fill="#282c33"/>
<path transform="matrix(.05553,0,0,.05553,64.13473,109.97099)" d="M100-194C163-194 186-152 184-88H49C49-48 63-21 102-20 128-19 145-32 151-49L179-41C168-13 142 4 102 4 44 4 14-33 15-96 16-157 41-194 100-194ZM152-113C158-173 76-190 55-141 52-134 49-124 49-113H152Z" fill="#282c33"/>
<path transform="matrix(.05553,0,0,.05553,75.24073,109.97099)" d="M210-169C143-166 172-64 166 0H135V-60.5-121C135-150 130-171 100-169 34-165 62-65 56 0H25L24-190H54C55-180 53-166 56-158 66-202 155-208 163-158 174-179 190-193 221-194 306-196 268-75 276 0H245V-60.5-121C245-150 240-170 210-169Z" fill="#282c33"/>
<path transform="matrix(.05553,0,0,.05553,91.8442,109.97099)" d="M141-36C126-15 110 5 73 4 37 3 15-17 15-53 14-117 78-116 140-116 143-151 131-170 99-170 75-169 58-163 57-139L24-142C29-179 57-194 100-194 145-194 172-174 172-130V-89-48C171-28 179-16 200-21V-11-1C169 8 139-3 141-36ZM48-53C48-33 60-20 80-20 121-23 143-49 140-94 97-92 48-99 48-53Z" fill="#282c33"/>
<path transform="matrix(.05553,0,0,.05553,102.950199,109.97099)" d="M117-194C206-198 170-78 177 0H145V-60.5-121C145-152 137-170 106-169 34-167 62-67 57 0H25L24-190H54C55-180 53-166 56-158 67-180 85-193 117-194Z" fill="#282c33"/>
<path transform="matrix(.05553,0,0,.05553,114.0562,109.97099)" d="M85-194C116-194 133-181 145-161L144-261H176L177 0H147C145-10 147-23 144-31 134-8 116 4 85 4 32 4 16-35 15-94 15-160 38-194 85-194ZM94-170C54-170 48-136 48-95 48-55 54-21 93-21 135-21 144-53 144-97 144-139 135-171 94-170Z" fill="#282c33"/>
<path transform="matrix(.05553,0,0,.05553,125.1622,109.97099)" d="" fill="#282c33"/>
<path transform="matrix(.05553,0,0,.05553,130.725,109.97099)" d="M185-189C180-237 62-243 61-187 75-112 219-173 224-68 227 10 103 19 49-13 32-23 21-39 16-59L49-66C54-10 190-3 190-67 190-145 35-81 28-185 23-267 173-269 207-219 212-212 215-203 218-194Z" fill="#282c33"/>
<path transform="matrix(.05553,0,0,.05553,144.0522,109.97099)" d="M100-194C163-194 186-152 184-88H49C49-48 63-21 102-20 128-19 145-32 151-49L179-41C168-13 142 4 102 4 44 4 14-33 15-96 16-157 41-194 100-194ZM152-113C158-173 76-190 55-141 52-134 49-124 49-113H152Z" fill="#282c33"/>
<path transform="matrix(.05553,0,0,.05553,155.1582,109.97099)" d="M96-169C56-169 48-136 48-96 48-56 57-21 96-21 120-21 137-35 139-59L171-57C165-20 140 4 97 4 38 4 21-37 15-95 5-188 116-226 162-159 166-152 167-145 169-137L137-134C133-155 121-169 96-169Z" fill="#282c33"/>
<path transform="matrix(.05553,0,0,.05553,165.15361,109.97099)" d="M59-47C57-23 77-18 97-25V-13-1C64 9 27 4 27-40V-103.5-167H5V-178.5-190H29L38-233H59V-211.5-190H94V-178.5-167H59V-107-47Z" fill="#282c33"/>
<path transform="matrix(.05553,0,0,.05553,170.7066,109.97099)" d="M100-194C162-195 185-157 185-95 186-32 158 4 99 4 40 4 16-35 15-95 15-161 43-194 100-194ZM99-20C143-19 152-51 152-95 152-138 144-170 101-170 58-170 48-138 48-95 48-52 58-21 99-20Z" fill="#282c33"/>
<path transform="matrix(.05553,0,0,.05553,181.8126,109.97099)" d="M114-163C36-179 61-72 57 0H25L24-190H54C55-178 53-161 56-151 62-178 79-200 114-192V-177.5-163Z" fill="#282c33"/>
<path transform="matrix(.05553,0,0,.05553,188.42069,109.97099)" d="M87 75C49 33 22-17 22-94 22-170 50-220 87-261H118C80-220 54-169 54-93 54-17 80 34 118 75H87Z" fill="#282c33"/>
<path transform="matrix(.05553,0,0,.05553,195.02875,109.97099)" d="M135-143C132-177 49-181 48-143 63-90 163-131 167-53 171 25 17 21 10-45L38-50C42-14 135-5 136-50 126-106 23-65 18-140 14-197 100-203 140-182 152-175 161-163 164-147Z" fill="#282c33"/>
<path transform="matrix(.05553,0,0,.05553,205.02414,109.97099)" d="M33-261C71-220 98-169 98-93 98-17 71 34 33 75H2C39 34 66-17 66-93 66-169 39-220 2-261H33Z" fill="#282c33"/>
<path transform="matrix(.45,0,0,.45,-785.69998,-36)" stroke-width="6" stroke-linecap="butt" stroke-miterlimit="4" stroke-linejoin="miter" fill="none" stroke="#3a414a" d="M2036 554.5V385.4"/>
<path transform="matrix(.45,0,0,.45,-785.69998,-36)" d="M2039 557.5H2033V554.5H2039Z" fill="#3a414a"/>
<path transform="matrix(.45,0,0,.45,-785.69998,-36)" stroke-width=".05" stroke-linecap="butt" stroke-miterlimit="4" stroke-linejoin="miter" fill="none" stroke="#3a414a" d="M2039 557.5H2033V554.5H2039Z"/>
<path transform="matrix(.45,0,0,.45,-785.69998,-36)" d="M2036 368.2 2041 382.4H2031Z" fill="#3a414a"/>
<path transform="matrix(.45,0,0,.45,-785.69998,-36)" stroke-width="6" stroke-linecap="butt" stroke-miterlimit="4" stroke-linejoin="miter" fill="none" stroke="#3a414a" d="M2036 368.2 2041 382.4H2031Z"/>
<path transform="matrix(.45,0,0,.45,18,18)" d="M0 6C0 0 6 0 6 0H494C500 0 500 6 500 6V164C500 170 494 170 494 170H6C0 170 0 164 0 164Z" fill="#ffffff" fill-opacity="0"/>
<path transform="matrix(.45,0,0,.45,18,18)" stroke-width="1" stroke-linecap="butt" stroke-miterlimit="4" stroke-linejoin="miter" fill="none" stroke="#000000" stroke-opacity="0" d="M0 6C0 0 6 0 6 0H494C500 0 500 6 500 6V164C500 170 494 170 494 170H6C0 170 0 164 0 164Z"/>
<path transform="matrix(.0416655,0,0,.0416655,52.645498,59.247)" d="M160-131C195-126 221-108 221-70 221 17 115-2 30 0V-124-248C106-245 207-265 207-188 207-155 188-138 160-131ZM63-142C113-143 173-133 173-184 173-231 110-220 63-221V-181.5-142ZM63-27C118-29 187-13 187-72 187-128 117-114 63-116V-71.5-27Z" fill="#3a414a"/>
<path transform="matrix(.0416655,0,0,.0416655,62.645219,59.247)" d="M114-163C36-179 61-72 57 0H25L24-190H54C55-178 53-161 56-151 62-178 79-200 114-192V-177.5-163Z" fill="#3a414a"/>
<path transform="matrix(.0416655,0,0,.0416655,67.60341,59.247)" d="M100-194C163-194 186-152 184-88H49C49-48 63-21 102-20 128-19 145-32 151-49L179-41C168-13 142 4 102 4 44 4 14-33 15-96 16-157 41-194 100-194ZM152-113C158-173 76-190 55-141 52-134 49-124 49-113H152Z" fill="#3a414a"/>
<path transform="matrix(.0416655,0,0,.0416655,75.93651,59.247)" d="M141-36C126-15 110 5 73 4 37 3 15-17 15-53 14-117 78-116 140-116 143-151 131-170 99-170 75-169 58-163 57-139L24-142C29-179 57-194 100-194 145-194 172-174 172-130V-89-48C171-28 179-16 200-21V-11-1C169 8 139-3 141-36ZM48-53C48-33 60-20 80-20 121-23 143-49 140-94 97-92 48-99 48-53Z" fill="#3a414a"/>
<path transform="matrix(.0416655,0,0,.0416655,84.26961,59.247)" d="M143 0 79-87 56-68V-34 0H24V-130.5-261H56V-179.5-98L139-190H176L99-108 181 0H143Z" fill="#3a414a"/>
<path transform="matrix(.0416655,0,0,.0416655,91.769397,59.247)" d="M100-194C163-194 186-152 184-88H49C49-48 63-21 102-20 128-19 145-32 151-49L179-41C168-13 142 4 102 4 44 4 14-33 15-96 16-157 41-194 100-194ZM152-113C158-173 76-190 55-141 52-134 49-124 49-113H152Z" fill="#3a414a"/>
<path transform="matrix(.0416655,0,0,.0416655,100.10249,59.247)" d="M108 0H70L1-190H35L89-25 145-190H179Z" fill="#3a414a"/>
<path transform="matrix(.0416655,0,0,.0416655,107.60229,59.247)" d="M100-194C163-194 186-152 184-88H49C49-48 63-21 102-20 128-19 145-32 151-49L179-41C168-13 142 4 102 4 44 4 14-33 15-96 16-157 41-194 100-194ZM152-113C158-173 76-190 55-141 52-134 49-124 49-113H152Z" fill="#3a414a"/>
<path transform="matrix(.0416655,0,0,.0416655,115.93539,59.247)" d="M117-194C206-198 170-78 177 0H145V-60.5-121C145-152 137-170 106-169 34-167 62-67 57 0H25L24-190H54C55-180 53-166 56-158 67-180 85-193 117-194Z" fill="#3a414a"/>
<path transform="matrix(.0416655,0,0,.0416655,124.26849,59.247)" d="" fill="#3a414a"/>
<path transform="matrix(.0416655,0,0,.0416655,128.43,59.247)" d="M30-248C117-247 221-263 221-173 221-95 144-93 63-97V-48.5 0H30V-124-248ZM63-123C120-123 187-112 187-173 187-232 119-220 63-221V-172-123Z" fill="#3a414a"/>
<path transform="matrix(.0416655,0,0,.0416655,138.42972,59.247)" d="M114-163C36-179 61-72 57 0H25L24-190H54C55-178 53-161 56-151 62-178 79-200 114-192V-177.5-163Z" fill="#3a414a"/>
<path transform="matrix(.0416655,0,0,.0416655,143.38791,59.247)" d="M24-231V-246-261H56V-246-231H24ZM24 0V-95-190H56V-95 0H24Z" fill="#3a414a"/>
<path transform="matrix(.0416655,0,0,.0416655,146.67948,59.247)" d="M96-169C56-169 48-136 48-96 48-56 57-21 96-21 120-21 137-35 139-59L171-57C165-20 140 4 97 4 38 4 21-37 15-95 5-188 116-226 162-159 166-152 167-145 169-137L137-134C133-155 121-169 96-169Z" fill="#3a414a"/>
<path transform="matrix(.0416655,0,0,.0416655,154.17928,59.247)" d="M100-194C163-194 186-152 184-88H49C49-48 63-21 102-20 128-19 145-32 151-49L179-41C168-13 142 4 102 4 44 4 14-33 15-96 16-157 41-194 100-194ZM152-113C158-173 76-190 55-141 52-134 49-124 49-113H152Z" fill="#3a414a"/>
<path transform="matrix(.0416655,0,0,.0416655,162.51238,59.247)" d="M33-154V-172-190H67V-172-154H33ZM33 0V-18-36H67V-18 0H33Z" fill="#3a414a"/>
<path transform="matrix(.0416655,0,0,.0416655,166.67893,59.247)" d="" fill="#3a414a"/>
<path transform="matrix(.0416655,0,0,.0416655,170.81999,59.247)" d="M194-70C194-24 160-6 113-4V10.5 25H91V10.5-4C42-5 12-27 4-67L34-73C39-45 59-32 91-30V-73.5-117C53-126 15-137 15-184 16-226 48-242 91-243V-254.5-266H113V-254.5-243C158-243 180-223 189-187L158-181C153-204 140-216 113-218V-179-140C154-130 194-120 194-70ZM113-29C164-22 184-95 132-106 126-108 120-110 113-112V-70.5-29ZM91-219C44-225 28-162 73-150 79-148 85-147 91-145V-182-219Z" fill="#3a414a"/>
<path transform="matrix(.0416655,0,0,.0416655,179.15309,59.247)" d="M54-142C102-177 191-150 185-81 196 18 31 33 14-55L46-59C53-36 68-22 98-22 133-23 149-44 152-80 156-135 79-145 53-114H22L30-248H171V-234.5-221H59Z" fill="#3a414a"/>
<path transform="matrix(.0416655,0,0,.0416655,187.48619,59.247)" d="M33 0V-19-38H67V-19 0H33Z" fill="#3a414a"/>
<path transform="matrix(.0416655,0,0,.0416655,191.65274,59.247)" d="M101-251C169-251 186-196 186-124 186-52 166 4 100 4 33 4 14-52 14-124 14-197 31-251 101-251ZM100-22C147-22 154-71 154-124 154-177 150-226 101-226 50-226 46-178 46-124 46-71 51-22 100-22Z" fill="#3a414a"/>
<path transform="matrix(.0416655,0,0,.0416655,199.98584,59.247)" d="M101-251C169-251 186-196 186-124 186-52 166 4 100 4 33 4 14-52 14-124 14-197 31-251 101-251ZM100-22C147-22 154-71 154-124 154-177 150-226 101-226 50-226 46-178 46-124 46-71 51-22 100-22Z" fill="#3a414a"/>
<path transform="matrix(.45,0,0,.45,135,153)" d="M0 6C0 0 6 0 6 0H234C240 0 240 6 240 6V110.7C240 116.6 234 116.6 234 116.6L6 116.7C0 116.6 0 110.6 0 110.6Z" fill="#ffffff" fill-opacity="0"/>
<path transform="matrix(.45,0,0,.45,135,153)" stroke-width="1" stroke-linecap="butt" stroke-miterlimit="4" stroke-linejoin="miter" fill="none" stroke="#000000" stroke-opacity="0" d="M0 6C0 0 6 0 6 0H234C240 0 240 6 240 6V110.7C240 116.6 234 116.6 234 116.6L6 116.7C0 116.6 0 110.6 0 110.6Z"/>
<path transform="matrix(.05553,0,0,.05553,142.9155,183.285)" d="M27 0V-13.5-27H91V-122-217L35-178V-192.5-207L93-248H122V-137.5-27H183V-13.5 0H27Z" fill="#008a0e"/>
<path transform="matrix(.05553,0,0,.05553,154.0215,183.285)" d="M101-251C169-251 186-196 186-124 186-52 166 4 100 4 33 4 14-52 14-124 14-197 31-251 101-251ZM100-22C147-22 154-71 154-124 154-177 150-226 101-226 50-226 46-178 46-124 46-71 51-22 100-22Z" fill="#008a0e"/>
<path transform="matrix(.05553,0,0,.05553,165.1275,183.285)" d="M101-251C169-251 186-196 186-124 186-52 166 4 100 4 33 4 14-52 14-124 14-197 31-251 101-251ZM100-22C147-22 154-71 154-124 154-177 150-226 101-226 50-226 46-178 46-124 46-71 51-22 100-22Z" fill="#008a0e"/>
<path transform="matrix(.05553,0,0,.05553,176.23349,183.285)" d="M101-251C169-251 186-196 186-124 186-52 166 4 100 4 33 4 14-52 14-124 14-197 31-251 101-251ZM100-22C147-22 154-71 154-124 154-177 150-226 101-226 50-226 46-178 46-124 46-71 51-22 100-22Z" fill="#008a0e"/>
<path transform="matrix(.05553,0,0,.05553,187.3395,183.285)" d="" fill="#008a0e"/>
<path transform="matrix(.05553,0,0,.05553,192.915,183.285)" d="M127-220V-110 0H93V-110-220H8V-234-248H212V-234-220H127Z" fill="#008a0e"/>
<path transform="matrix(.05553,0,0,.05553,202.85486,183.285)" d="M100-194C162-195 185-157 185-95 186-32 158 4 99 4 40 4 16-35 15-95 15-161 43-194 100-194ZM99-20C143-19 152-51 152-95 152-138 144-170 101-170 58-170 48-138 48-95 48-52 58-21 99-20Z" fill="#008a0e"/>
<path transform="matrix(.05553,0,0,.05553,213.96086,183.285)" d="M117-194C206-198 170-78 177 0H145V-60.5-121C145-152 137-170 106-169 34-167 62-67 57 0H25L24-190H54C55-180 53-166 56-158 67-180 85-193 117-194Z" fill="#008a0e"/>
<path transform="matrix(.05553,0,0,.05553,225.06687,183.285)" d="M135-143C132-177 49-181 48-143 63-90 163-131 167-53 171 25 17 21 10-45L38-50C42-14 135-5 136-50 126-106 23-65 18-140 14-197 100-203 140-182 152-175 161-163 164-147Z" fill="#008a0e"/>
<text fill-opacity="0" xml:space="preserve" transform="matrix(.45 0 -0 .45 0 0)" font-size="44.44" font-family="Helvetica"><tspan y="531" x="186.9 211.59 236.28 268.25 280.6 310.22 334.91 349.6 359.353 371.693 393.913">Low Purity </tspan></text>
<text fill-opacity="0" xml:space="preserve" transform="matrix(.45 0 -0 .45 0 0)" font-size="44.44" font-family="Helvetica"><tspan y="584.3" x="206.6 238.57 263.26 300.17 324.86003 349.55003">Demand</tspan></text>
<text fill-opacity="0" xml:space="preserve" transform="matrix(.45 0 -0 .45 0 0)" font-size="44.44" font-family="Helvetica"><tspan y="260" x="1108 1132.69 1157.3799 1169.7199 1194.4098">$4.30</tspan></text>
<text fill-opacity="0" xml:space="preserve" transform="matrix(.45 0 -0 .45 0 0)" font-size="44.44" font-family="Helvetica"><tspan y="556" x="1108 1132.69 1157.3799 1169.7199 1194.4098">$4.10</tspan></text>
<text fill-opacity="0" xml:space="preserve" transform="matrix(.45 0 -0 .45 0 0)" font-size="44.44" font-family="Helvetica"><tspan y="408" x="1108 1132.69 1157.3799 1169.7199 1194.4098">$4.20</tspan></text>
<text fill-opacity="0" xml:space="preserve" transform="matrix(.45 0 -0 .45 0 0)" font-size="44.44" font-family="Helvetica"><tspan y="704" x="1108 1132.69 1157.3799 1169.7199 1194.4098">$4.00</tspan></text>
<text fill-opacity="0" xml:space="preserve" transform="matrix(.45 0 -0 .45 0 0)" font-size="44.44" font-family="Helvetica"><tspan y="852" x="1108 1132.69 1157.3799 1169.7199 1194.4098">$3.90</tspan></text>
<text fill-opacity="0" xml:space="preserve" transform="matrix(.45 0 -0 .45 0 0)" font-size="44.44" font-family="Helvetica"><tspan y="238.9" x="645.4 670.09 682.43008 707.12008 731.81008 756.50009 768.8 790.89 815.58 840.27">0.001 Tons</tspan></text>
<text fill-opacity="0" xml:space="preserve" transform="matrix(.45 0 -0 .45 0 0)" font-size="44.44" font-family="Helvetica"><tspan y="387.3" x="645.4 670.09 682.43008 707.12008 731.81008 756.50009 768.8 790.89 815.58 840.27">0.001 Tons</tspan></text>
<text fill-opacity="0" xml:space="preserve" transform="matrix(.45 0 -0 .45 0 0)" font-size="44.44" font-family="Helvetica"><tspan y="535.6" x="652.6 677.29 689.63 714.32 739.01 763.7 776 798.09 822.78 847.47006">0.001 Tons</tspan></text>
<text fill-opacity="0" xml:space="preserve" transform="matrix(.45 0 -0 .45 0 0)" font-size="44.44" font-family="Helvetica"><tspan y="683.9" x="645.4 670.09 682.43008 707.12008 731.81008 756.50009 768.8 790.89 815.58 840.27">0.001 Tons</tspan></text>
<text fill-opacity="0" xml:space="preserve" transform="matrix(.45 0 -0 .45 0 0)" font-size="44.44" font-family="Helvetica"><tspan y="832.3" x="728.6 753.29 765.6 787.69 812.38 837.07">0 Tons</tspan></text>
<text fill-opacity="0" xml:space="preserve" transform="matrix(.45 0 -0 .45 0 0)" font-size="44.44" font-family="Helvetica"><tspan y="191" x="186.9 211.59 236.28 268.25 280.6 310.22 334.91 344.663 359.353 371.693 393.913">Low Puirty </tspan></text>
<text fill-opacity="0" xml:space="preserve" transform="matrix(.45 0 -0 .45 0 0)" font-size="44.44" font-family="Helvetica"><tspan y="244.3" x="110.5 142.47 167.16 204.07 228.76001 253.45001 278.14 290.5 320.12 344.81 367.03 379.37 404.06 418.75 433.44 455.66">Demand Sector(s)</tspan></text>
<text fill-opacity="0" xml:space="preserve" transform="matrix(.45 0 -0 .45 0 0)" font-size="33.33" font-family="Helvetica"><tspan y="131.6" x="117.3 139.52 150.53 169.04 187.54999 204.20999 222.71999 239.37999 257.88999 276.4 285.7 307.92 318.93003 326.24403 342.90403 361.41404 370.67304 380 398.51 417.02003 426.27903 444.78904">Breakeven Price: $5.00</tspan></text>
<text fill-opacity="0" xml:space="preserve" transform="matrix(.45 0 -0 .45 0 0)" font-size="44.44" font-family="Helvetica"><tspan y="407.3" x="317.9 342.59 367.28 391.97 416.66 429 451.09 475.78 500.47">1000 Tons</tspan></text>
</svg>
